<svg width="51" height="53" viewBox="0 0 51 53" fill="none" xmlns="http://www.w3.org/2000/svg">
<path d="M48.5843 2.26771C45.6316 -0.755905 40.5316 -0.755905 37.3106 2.26771L15.5685 23.9828C13.6895 25.9069 12.3474 28.3808 11.8106 31.1295L10.7369 37.1768C10.4685 38.0014 10.7369 39.1009 11.5422 39.6506C12.079 40.2004 12.6158 40.4753 13.4211 40.4753C13.6895 40.4753 13.6895 40.4753 13.9579 40.4753L19.8632 39.3758C22.5474 38.826 24.9632 37.4516 26.8422 35.5275L48.5843 13.5376C50.1948 12.1632 51.0001 9.9642 51.0001 7.7652C51.0001 5.56621 50.1948 3.64209 48.5843 2.26771ZM23.3527 31.4044C22.279 32.5039 20.6685 33.3285 19.0579 33.6034L16.9106 34.1532L17.4474 32.229C17.7158 30.5798 18.5211 29.2054 19.8632 27.831L36.5053 11.0637L40.2632 14.6371L23.3527 31.4044ZM44.8264 9.68932L43.7527 10.7888L39.9948 7.21545L41.0685 6.11596C41.6053 5.56621 42.4106 5.29133 42.9474 5.29133C43.7527 5.29133 44.2895 5.56621 44.8264 6.11596C45.3632 6.66571 45.6316 7.21546 45.6316 7.7652C45.6316 8.31495 45.6316 9.13958 44.8264 9.68932Z" fill="#1F7A74"/>
<path d="M45.6316 21.5089C44.0211 21.5089 42.9474 22.6084 42.9474 24.2576V38.2762C42.9474 42.9491 39.4579 46.5224 34.8947 46.5224H13.4211C8.8579 46.5224 5.36842 42.9491 5.36842 38.2762V16.2862C5.36842 11.6134 8.8579 8.04 13.4211 8.04H26.8421C28.4526 8.04 29.5263 6.9405 29.5263 5.29126C29.5263 3.64201 28.4526 2.54251 26.8421 2.54251H13.4211C5.90526 2.54251 0 8.58975 0 16.2862V38.2762C0 45.9727 5.90526 52.0199 13.4211 52.0199H34.8947C42.4105 52.0199 48.3158 45.9727 48.3158 38.2762V24.2576C48.3158 22.8832 47.2421 21.5089 45.6316 21.5089Z" fill="#1F7A74"/>
</svg>
