<svg width="510" height="805" viewBox="0 0 510 805" fill="none" xmlns="http://www.w3.org/2000/svg">
<rect width="432" height="805" rx="39" fill="#E7F9F7"/>
<rect x="297" y="498" width="64" height="64" fill="#26DCBF" fill-opacity="0.2"/>
<rect x="169" y="498" width="64" height="64" fill="#26DCBF" fill-opacity="0.2"/>
<rect x="233" y="562" width="64" height="64" fill="#26DCBF" fill-opacity="0.2"/>
<rect x="233" y="434" width="64" height="64" fill="#26DCBF" fill-opacity="0.2"/>
<rect x="233" y="498" width="64" height="64" fill="#26DCBF" fill-opacity="0.2"/>
<rect x="329" y="268.333" width="37" height="36.3333" fill="#26DCBF" fill-opacity="0.2"/>
<rect x="255" y="268.333" width="37" height="36.3333" fill="#26DCBF" fill-opacity="0.2"/>
<rect x="292" y="304.667" width="37" height="36.3333" fill="#26DCBF" fill-opacity="0.2"/>
<rect x="292" y="232" width="37" height="36.3333" fill="#26DCBF" fill-opacity="0.2"/>
<rect x="292" y="268.333" width="37" height="36.3333" fill="#26DCBF" fill-opacity="0.2"/>
<rect x="256.667" y="735.333" width="20.3333" height="20.3333" fill="#26DCBF" fill-opacity="0.2"/>
<rect x="216" y="735.333" width="20.3333" height="20.3333" fill="#26DCBF" fill-opacity="0.2"/>
<rect x="236.333" y="755.667" width="20.3333" height="20.3333" fill="#26DCBF" fill-opacity="0.2"/>
<rect x="236.333" y="715" width="20.3333" height="20.3333" fill="#26DCBF" fill-opacity="0.2"/>
<rect x="236.333" y="735.333" width="20.3333" height="20.3333" fill="#26DCBF" fill-opacity="0.2"/>
<rect x="446" y="643" width="64" height="64" fill="#26DCBF" fill-opacity="0.2"/>
<rect x="318" y="643" width="64" height="64" fill="#26DCBF" fill-opacity="0.2"/>
<rect x="382" y="707" width="64" height="64" fill="#26DCBF" fill-opacity="0.2"/>
<rect x="382" y="579" width="64" height="64" fill="#26DCBF" fill-opacity="0.2"/>
<rect x="382" y="643" width="64" height="64" fill="#26DCBF" fill-opacity="0.2"/>
<rect x="156" y="642" width="31" height="31" fill="#26DCBF" fill-opacity="0.2"/>
<rect x="94" y="642" width="31" height="31" fill="#26DCBF" fill-opacity="0.2"/>
<rect x="125" y="673" width="31" height="31" fill="#26DCBF" fill-opacity="0.2"/>
<rect x="125" y="611" width="31" height="31" fill="#26DCBF" fill-opacity="0.2"/>
<rect x="125" y="642" width="31" height="31" fill="#26DCBF" fill-opacity="0.2"/>
</svg>
