<svg width="390" height="756" viewBox="0 0 390 756" fill="none" xmlns="http://www.w3.org/2000/svg">
<rect x="-40" width="432" height="805" rx="39" fill="#E7F9F7"/>
<rect x="257" y="498" width="64" height="64" fill="#26DCBF" fill-opacity="0.2"/>
<rect x="129" y="498" width="64" height="64" fill="#26DCBF" fill-opacity="0.2"/>
<rect x="193" y="562" width="64" height="64" fill="#26DCBF" fill-opacity="0.2"/>
<rect x="193" y="434" width="64" height="64" fill="#26DCBF" fill-opacity="0.2"/>
<rect x="193" y="498" width="64" height="64" fill="#26DCBF" fill-opacity="0.2"/>
<rect x="289" y="268.333" width="37" height="36.3333" fill="#26DCBF" fill-opacity="0.2"/>
<rect x="215" y="268.333" width="37" height="36.3333" fill="#26DCBF" fill-opacity="0.2"/>
<rect x="252" y="304.667" width="37" height="36.3333" fill="#26DCBF" fill-opacity="0.2"/>
<rect x="252" y="232" width="37" height="36.3333" fill="#26DCBF" fill-opacity="0.2"/>
<rect x="252" y="268.333" width="37" height="36.3333" fill="#26DCBF" fill-opacity="0.2"/>
<rect x="216.667" y="735.333" width="20.3333" height="20.3333" fill="#26DCBF" fill-opacity="0.2"/>
<rect x="176" y="735.333" width="20.3333" height="20.3333" fill="#26DCBF" fill-opacity="0.2"/>
<rect x="196.333" y="755.667" width="20.3333" height="20.3333" fill="#26DCBF" fill-opacity="0.2"/>
<rect x="196.333" y="715" width="20.3333" height="20.3333" fill="#26DCBF" fill-opacity="0.2"/>
<rect x="196.333" y="735.333" width="20.3333" height="20.3333" fill="#26DCBF" fill-opacity="0.2"/>
<rect x="278" y="643" width="64" height="64" fill="#26DCBF" fill-opacity="0.2"/>
<rect x="342" y="707" width="64" height="64" fill="#26DCBF" fill-opacity="0.2"/>
<rect x="342" y="579" width="64" height="64" fill="#26DCBF" fill-opacity="0.2"/>
<rect x="342" y="643" width="64" height="64" fill="#26DCBF" fill-opacity="0.2"/>
<rect x="116" y="642" width="31" height="31" fill="#26DCBF" fill-opacity="0.2"/>
<rect x="54" y="642" width="31" height="31" fill="#26DCBF" fill-opacity="0.2"/>
<rect x="85" y="673" width="31" height="31" fill="#26DCBF" fill-opacity="0.2"/>
<rect x="85" y="611" width="31" height="31" fill="#26DCBF" fill-opacity="0.2"/>
<rect x="85" y="642" width="31" height="31" fill="#26DCBF" fill-opacity="0.2"/>
</svg>
