<svg width="428" height="926" viewBox="0 0 428 926" fill="none" xmlns="http://www.w3.org/2000/svg">
<path fill-rule="evenodd" clip-rule="evenodd" d="M428 926V40C428 17.9086 410.091 0 388 0H0V926H428Z" fill="#E7F9F7"/>
<path d="M248 630H312V694H248V630Z" fill="#26DCBF" fill-opacity="0.2"/>
<path d="M120 630H184V694H120V630Z" fill="#26DCBF" fill-opacity="0.2"/>
<path d="M184 694H248V758H184V694Z" fill="#26DCBF" fill-opacity="0.2"/>
<path d="M184 566H248V630H184V566Z" fill="#26DCBF" fill-opacity="0.2"/>
<path d="M184 630H248V694H184V630Z" fill="#26DCBF" fill-opacity="0.2"/>
<path d="M343 348.333H380V384.667H343V348.333Z" fill="#26DCBF" fill-opacity="0.2"/>
<path d="M269 348.333H306V384.667H269V348.333Z" fill="#26DCBF" fill-opacity="0.2"/>
<path d="M306 384.667H343V421H306V384.667Z" fill="#26DCBF" fill-opacity="0.2"/>
<path d="M306 312H343V348.333H306V312Z" fill="#26DCBF" fill-opacity="0.2"/>
<path d="M306 348.333H343V384.667H306V348.333Z" fill="#26DCBF" fill-opacity="0.2"/>
<path d="M355.667 525.333H376V545.667H355.667V525.333Z" fill="#26DCBF" fill-opacity="0.2"/>
<path d="M315 525.333H335.333V545.667H315V525.333Z" fill="#26DCBF" fill-opacity="0.2"/>
<path d="M335.333 545.667H355.667V566H335.333V545.667Z" fill="#26DCBF" fill-opacity="0.2"/>
<path d="M335.333 505H355.667V525.333H335.333V505Z" fill="#26DCBF" fill-opacity="0.2"/>
<path d="M335.333 525.333H355.667V545.667H335.333V525.333Z" fill="#26DCBF" fill-opacity="0.2"/>
<path d="M121 796H152V827H121V796Z" fill="#26DCBF" fill-opacity="0.2"/>
<path d="M59 796H90V827H59V796Z" fill="#26DCBF" fill-opacity="0.2"/>
<path d="M90 827H121V858H90V827Z" fill="#26DCBF" fill-opacity="0.2"/>
<path d="M90 765H121V796H90V765Z" fill="#26DCBF" fill-opacity="0.2"/>
<path d="M90 796H121V827H90V796Z" fill="#26DCBF" fill-opacity="0.2"/>
<path d="M408 789H428V858H408V789Z" fill="#26DCBF" fill-opacity="0.2"/>
<path d="M277 789.333H342.667V857.667H277V789.333Z" fill="#26DCBF" fill-opacity="0.2"/>
<path d="M342.667 857.667H408.333V926H342.667V857.667Z" fill="#26DCBF" fill-opacity="0.2"/>
<path d="M342.667 721H408.333V789.333H342.667V721Z" fill="#26DCBF" fill-opacity="0.2"/>
<path d="M342.667 789.333H408.333V857.667H342.667V789.333Z" fill="#26DCBF" fill-opacity="0.2"/>
</svg>
