<svg width="1440" height="1861" viewBox="0 0 1440 1861" fill="none" xmlns="http://www.w3.org/2000/svg">
<path fill-rule="evenodd" clip-rule="evenodd" d="M0 1861H1440V40C1440 17.9086 1422.09 0 1400 0H0V1861Z" fill="#E7F9F7"/>
<rect x="837" y="846" width="64" height="64" fill="#26DCBF" fill-opacity="0.2"/>
<rect x="709" y="846" width="64" height="64" fill="#26DCBF" fill-opacity="0.2"/>
<rect x="773" y="910" width="64" height="64" fill="#26DCBF" fill-opacity="0.2"/>
<rect x="773" y="782" width="64" height="64" fill="#26DCBF" fill-opacity="0.2"/>
<rect x="773" y="846" width="64" height="64" fill="#26DCBF" fill-opacity="0.2"/>
<rect x="598" y="1131" width="39" height="39" fill="#26DCBF" fill-opacity="0.2"/>
<rect x="520" y="1131" width="39" height="39" fill="#26DCBF" fill-opacity="0.2"/>
<rect x="559" y="1170" width="39" height="39" fill="#26DCBF" fill-opacity="0.2"/>
<rect x="559" y="1092" width="39" height="39" fill="#26DCBF" fill-opacity="0.2"/>
<rect x="559" y="1131" width="39" height="39" fill="#26DCBF" fill-opacity="0.2"/>
<rect x="439.667" y="1007.33" width="42.3333" height="42.3333" fill="#26DCBF" fill-opacity="0.2"/>
<rect x="355" y="1007.33" width="42.3333" height="42.3333" fill="#26DCBF" fill-opacity="0.2"/>
<rect x="397.333" y="1049.67" width="42.3333" height="42.3333" fill="#26DCBF" fill-opacity="0.2"/>
<rect x="397.333" y="965" width="42.3333" height="42.3333" fill="#26DCBF" fill-opacity="0.2"/>
<rect x="397.333" y="1007.33" width="42.3333" height="42.3333" fill="#26DCBF" fill-opacity="0.2"/>
<rect x="229.667" y="861.333" width="24.3333" height="24.3333" fill="#26DCBF" fill-opacity="0.2"/>
<rect x="181" y="861.333" width="24.3333" height="24.3333" fill="#26DCBF" fill-opacity="0.2"/>
<rect x="205.333" y="885.667" width="24.3333" height="24.3333" fill="#26DCBF" fill-opacity="0.2"/>
<rect x="205.333" y="837" width="24.3333" height="24.3333" fill="#26DCBF" fill-opacity="0.2"/>
<rect x="205.333" y="861.333" width="24.3333" height="24.3333" fill="#26DCBF" fill-opacity="0.2"/>
<rect x="1245" y="941" width="47" height="47" fill="#26DCBF" fill-opacity="0.2"/>
<rect x="1151" y="941" width="47" height="47" fill="#26DCBF" fill-opacity="0.2"/>
<rect x="1198" y="988" width="47" height="47" fill="#26DCBF" fill-opacity="0.2"/>
<rect x="1198" y="894" width="47" height="47" fill="#26DCBF" fill-opacity="0.2"/>
<rect x="1198" y="941" width="47" height="47" fill="#26DCBF" fill-opacity="0.2"/>
<rect x="1399.33" y="473.667" width="22.6667" height="22.6667" fill="#26DCBF" fill-opacity="0.2"/>
<rect x="1354" y="473.667" width="22.6667" height="22.6667" fill="#26DCBF" fill-opacity="0.2"/>
<rect x="1376.67" y="496.333" width="22.6667" height="22.6667" fill="#26DCBF" fill-opacity="0.2"/>
<rect x="1376.67" y="451" width="22.6667" height="22.6667" fill="#26DCBF" fill-opacity="0.2"/>
<rect x="1376.67" y="473.667" width="22.6667" height="22.6667" fill="#26DCBF" fill-opacity="0.2"/>
<rect x="1253" y="524" width="39" height="39" fill="#26DCBF" fill-opacity="0.2"/>
<rect x="1175" y="524" width="39" height="39" fill="#26DCBF" fill-opacity="0.2"/>
<rect x="1214" y="563" width="39" height="39" fill="#26DCBF" fill-opacity="0.2"/>
<rect x="1214" y="485" width="39" height="39" fill="#26DCBF" fill-opacity="0.2"/>
<rect x="1214" y="524" width="39" height="39" fill="#26DCBF" fill-opacity="0.2"/>
<rect x="1039.67" y="1043.67" width="52.3333" height="53.6667" fill="#26DCBF" fill-opacity="0.2"/>
<rect x="935" y="1043.67" width="52.3333" height="53.6667" fill="#26DCBF" fill-opacity="0.2"/>
<rect x="987.333" y="1097.33" width="52.3333" height="53.6667" fill="#26DCBF" fill-opacity="0.2"/>
<rect x="987.333" y="990" width="52.3333" height="53.6667" fill="#26DCBF" fill-opacity="0.2"/>
<rect x="987.333" y="1043.67" width="52.3333" height="53.6667" fill="#26DCBF" fill-opacity="0.2"/>
<rect x="112.333" y="620.667" width="22.6667" height="22.6667" fill="#26DCBF" fill-opacity="0.2"/>
<rect x="67" y="620.667" width="22.6667" height="22.6667" fill="#26DCBF" fill-opacity="0.2"/>
<rect x="89.6667" y="643.333" width="22.6667" height="22.6667" fill="#26DCBF" fill-opacity="0.2"/>
<rect x="89.6667" y="598" width="22.6667" height="22.6667" fill="#26DCBF" fill-opacity="0.2"/>
<rect x="89.6667" y="620.667" width="22.6667" height="22.6667" fill="#26DCBF" fill-opacity="0.2"/>
<rect x="1152.33" y="804.667" width="22.6667" height="22.6667" fill="#26DCBF" fill-opacity="0.2"/>
<rect x="1107" y="804.667" width="22.6667" height="22.6667" fill="#26DCBF" fill-opacity="0.2"/>
<rect x="1129.67" y="827.333" width="22.6667" height="22.6667" fill="#26DCBF" fill-opacity="0.2"/>
<rect x="1129.67" y="782" width="22.6667" height="22.6667" fill="#26DCBF" fill-opacity="0.2"/>
<rect x="1129.67" y="804.667" width="22.6667" height="22.6667" fill="#26DCBF" fill-opacity="0.2"/>
<rect x="663.333" y="695.667" width="22.6667" height="22.6667" fill="#26DCBF" fill-opacity="0.2"/>
<rect x="618" y="695.667" width="22.6667" height="22.6667" fill="#26DCBF" fill-opacity="0.2"/>
<rect x="640.667" y="718.333" width="22.6667" height="22.6667" fill="#26DCBF" fill-opacity="0.2"/>
<rect x="640.667" y="673" width="22.6667" height="22.6667" fill="#26DCBF" fill-opacity="0.2"/>
<rect x="640.667" y="695.667" width="22.6667" height="22.6667" fill="#26DCBF" fill-opacity="0.2"/>
<rect x="998.333" y="770.667" width="22.6667" height="22.6667" fill="#26DCBF" fill-opacity="0.2"/>
<rect x="953" y="770.667" width="22.6667" height="22.6667" fill="#26DCBF" fill-opacity="0.2"/>
<rect x="975.667" y="793.333" width="22.6667" height="22.6667" fill="#26DCBF" fill-opacity="0.2"/>
<rect x="975.667" y="748" width="22.6667" height="22.6667" fill="#26DCBF" fill-opacity="0.2"/>
<rect x="975.667" y="770.667" width="22.6667" height="22.6667" fill="#26DCBF" fill-opacity="0.2"/>
<rect x="584.333" y="944.667" width="22.6667" height="22.6667" fill="#26DCBF" fill-opacity="0.2"/>
<rect x="539" y="944.667" width="22.6667" height="22.6667" fill="#26DCBF" fill-opacity="0.2"/>
<rect x="561.667" y="967.333" width="22.6667" height="22.6667" fill="#26DCBF" fill-opacity="0.2"/>
<rect x="561.667" y="922" width="22.6667" height="22.6667" fill="#26DCBF" fill-opacity="0.2"/>
<rect x="561.667" y="944.667" width="22.6667" height="22.6667" fill="#26DCBF" fill-opacity="0.2"/>
<rect x="1354" y="707" width="64" height="64" fill="#26DCBF" fill-opacity="0.2"/>
<rect x="1226" y="707" width="64" height="64" fill="#26DCBF" fill-opacity="0.2"/>
<rect x="1290" y="771" width="64" height="64" fill="#26DCBF" fill-opacity="0.2"/>
<rect x="1290" y="643" width="64" height="64" fill="#26DCBF" fill-opacity="0.2"/>
<rect x="1290" y="707" width="64" height="64" fill="#26DCBF" fill-opacity="0.2"/>
<rect x="146.333" y="1096.67" width="22.6667" height="22.6667" fill="#26DCBF" fill-opacity="0.2"/>
<rect x="101" y="1096.67" width="22.6667" height="22.6667" fill="#26DCBF" fill-opacity="0.2"/>
<rect x="123.667" y="1119.33" width="22.6667" height="22.6667" fill="#26DCBF" fill-opacity="0.2"/>
<rect x="123.667" y="1074" width="22.6667" height="22.6667" fill="#26DCBF" fill-opacity="0.2"/>
<rect x="123.667" y="1096.67" width="22.6667" height="22.6667" fill="#26DCBF" fill-opacity="0.2"/>
<rect x="387.333" y="766.667" width="22.6667" height="22.6667" fill="#26DCBF" fill-opacity="0.2"/>
<rect x="342" y="766.667" width="22.6667" height="22.6667" fill="#26DCBF" fill-opacity="0.2"/>
<rect x="364.667" y="789.333" width="22.6667" height="22.6667" fill="#26DCBF" fill-opacity="0.2"/>
<rect x="364.667" y="744" width="22.6667" height="22.6667" fill="#26DCBF" fill-opacity="0.2"/>
<rect x="364.667" y="766.667" width="22.6667" height="22.6667" fill="#26DCBF" fill-opacity="0.2"/>
<rect x="1246.33" y="361.667" width="22.6667" height="22.6667" fill="#26DCBF" fill-opacity="0.2"/>
<rect x="1201" y="361.667" width="22.6667" height="22.6667" fill="#26DCBF" fill-opacity="0.2"/>
<rect x="1223.67" y="384.333" width="22.6667" height="22.6667" fill="#26DCBF" fill-opacity="0.2"/>
<rect x="1223.67" y="339" width="22.6667" height="22.6667" fill="#26DCBF" fill-opacity="0.2"/>
<rect x="1223.67" y="361.667" width="22.6667" height="22.6667" fill="#26DCBF" fill-opacity="0.2"/>
<rect x="765.333" y="586.667" width="22.6667" height="22.6667" fill="#26DCBF" fill-opacity="0.2"/>
<rect x="720" y="586.667" width="22.6667" height="22.6667" fill="#26DCBF" fill-opacity="0.2"/>
<rect x="742.667" y="609.333" width="22.6667" height="22.6667" fill="#26DCBF" fill-opacity="0.2"/>
<rect x="742.667" y="564" width="22.6667" height="22.6667" fill="#26DCBF" fill-opacity="0.2"/>
<rect x="742.667" y="586.667" width="22.6667" height="22.6667" fill="#26DCBF" fill-opacity="0.2"/>
<rect x="1055.33" y="627.667" width="22.6667" height="22.6667" fill="#26DCBF" fill-opacity="0.2"/>
<rect x="1010" y="627.667" width="22.6667" height="22.6667" fill="#26DCBF" fill-opacity="0.2"/>
<rect x="1032.67" y="650.333" width="22.6667" height="22.6667" fill="#26DCBF" fill-opacity="0.2"/>
<rect x="1032.67" y="605" width="22.6667" height="22.6667" fill="#26DCBF" fill-opacity="0.2"/>
<rect x="1032.67" y="627.667" width="22.6667" height="22.6667" fill="#26DCBF" fill-opacity="0.2"/>
<rect x="1021.33" y="446.667" width="22.6667" height="22.6667" fill="#26DCBF" fill-opacity="0.2"/>
<rect x="976" y="446.667" width="22.6667" height="22.6667" fill="#26DCBF" fill-opacity="0.2"/>
<rect x="998.667" y="469.333" width="22.6667" height="22.6667" fill="#26DCBF" fill-opacity="0.2"/>
<rect x="998.667" y="424" width="22.6667" height="22.6667" fill="#26DCBF" fill-opacity="0.2"/>
<rect x="998.667" y="446.667" width="22.6667" height="22.6667" fill="#26DCBF" fill-opacity="0.2"/>
</svg>
