<svg width="34" height="34" viewBox="0 0 34 34" fill="none" xmlns="http://www.w3.org/2000/svg">
<path d="M17 34C13.6377 34 10.3509 33.003 7.55531 31.135C4.75968 29.267 2.58074 26.612 1.29406 23.5056C0.00736583 20.3993 -0.329291 16.9811 0.326658 13.6835C0.982607 10.3858 2.6017 7.35668 4.97919 4.97919C7.35668 2.6017 10.3858 0.982607 13.6835 0.326658C16.9811 -0.329291 20.3993 0.00736583 23.5056 1.29406C26.612 2.58074 29.267 4.75968 31.135 7.55531C33.003 10.3509 34 13.6377 34 17C34 21.5087 32.2089 25.8327 29.0208 29.0208C25.8327 32.2089 21.5087 34 17 34ZM17 2.61539C14.155 2.61539 11.3739 3.45903 9.00834 5.03964C6.6428 6.62024 4.79909 8.86681 3.71036 11.4953C2.62162 14.1237 2.33675 17.016 2.89179 19.8063C3.44682 22.5966 4.81682 25.1597 6.82855 27.1715C8.84027 29.1832 11.4034 30.5532 14.1937 31.1082C16.984 31.6633 19.8763 31.3784 22.5048 30.2897C25.1332 29.2009 27.3798 27.3572 28.9604 24.9917C30.541 22.6261 31.3846 19.845 31.3846 17C31.3846 13.185 29.8691 9.52619 27.1715 6.82855C24.4738 4.13091 20.815 2.61539 17 2.61539Z" fill="#1F7A74"/>
<path d="M24.1923 25.5C24.0202 25.501 23.8496 25.468 23.6902 25.4029C23.5309 25.3379 23.386 25.242 23.2638 25.1208L16.0715 17.9285C15.9503 17.8063 15.8544 17.6614 15.7894 17.502C15.7243 17.3427 15.6913 17.1721 15.6923 17V6.53847C15.6923 6.19164 15.8301 5.85903 16.0753 5.61379C16.3205 5.36855 16.6532 5.23077 17 5.23077C17.3468 5.23077 17.6794 5.36855 17.9247 5.61379C18.1699 5.85903 18.3077 6.19164 18.3077 6.53847V16.4638L25.1207 23.2638C25.2433 23.3854 25.3406 23.53 25.407 23.6894C25.4734 23.8488 25.5076 24.0197 25.5076 24.1923C25.5076 24.3649 25.4734 24.5359 25.407 24.6952C25.3406 24.8546 25.2433 24.9992 25.1207 25.1208C24.9986 25.242 24.8536 25.3379 24.6943 25.4029C24.535 25.468 24.3644 25.501 24.1923 25.5Z" fill="#1F7A74"/>
</svg>
