<svg width="52" height="46" viewBox="0 0 52 46" fill="none" xmlns="http://www.w3.org/2000/svg">
<path d="M9.75 45.75H16.25C18.0477 45.75 19.5 44.2977 19.5 42.5C19.5 40.7023 18.0477 39.25 16.25 39.25H9.75C7.95539 39.25 6.5 37.7946 6.5 36V10C6.5 8.20539 7.95539 6.75 9.75 6.75H16.25C18.0477 6.75 19.5 5.29461 19.5 3.5C19.5 1.70539 18.0477 0.25 16.25 0.25H9.75C4.36516 0.25 0 4.61516 0 10V36C0 41.3828 4.36516 45.75 9.75 45.75ZM51.2687 21.2227L36.6336 7.41016C35.9252 6.74208 34.8867 6.55957 33.993 6.94358C33.0989 7.32921 32.5193 8.21006 32.5193 9.18303L32.51 16.4955L19.51 16.4954C17.7133 16.4954 16.2579 17.9508 16.2579 19.7454V26.2454C16.2579 28.04 17.7143 29.4954 19.51 29.4954L32.51 29.4955L32.5193 36.7166C32.5193 37.6894 33.0989 38.5701 33.993 38.9561C34.887 39.3401 35.9257 39.1576 36.6336 38.4895L51.2687 24.677C52.2437 23.8531 52.2437 22.1469 51.2687 21.2227Z" fill="#1F7A74"/>
</svg>
